<svg xmlns="http://www.w3.org/2000/svg" width="495" height="195" viewBox="0 0 495 195">
  <style>
    .header { font: 600 18px 'Segoe UI', Ubuntu, Sans-Serif; fill: #70a5fd; }
    .stat { font: 600 14px 'Segoe UI', Ubuntu, Sans-Serif; fill: #38bdae; }
    .bold { font-weight: 700; }
    .icon { fill: #bf91f3; }
  </style>
  <rect x="0.5" y="0.5" rx="4.5" width="494" height="194" fill="#1a1b27" stroke="#444" stroke-opacity="1"/>

  <text x="25" y="35" class="header">James's GitHub Stats</text>

  <!-- Stars -->
  <g transform="translate(0, 0)">
    <svg x="25" y="50" width="16" height="16" viewBox="0 0 16 16" class="icon">
      <path d="M8 .25a.75.75 0 01.673.418l1.882 3.815 4.21.612a.75.75 0 01.416 1.279l-3.046 2.97.719 4.192a.75.75 0 01-1.088.791L8 12.347l-3.766 1.98a.75.75 0 01-1.088-.79l.72-4.194L.818 6.374a.75.75 0 01.416-1.28l4.21-.611L7.327.668A.75.75 0 018 .25z"/>
    </svg>
    <text x="50" y="63" class="stat">Total Stars:</text>
    <text x="200" y="63" class="stat bold">17</text>
  </g>

  <!-- Commits -->
  <g transform="translate(0, 0)">
    <svg x="25" y="78" width="16" height="16" viewBox="0 0 16 16" class="icon">
      <path d="M11.93 8.5a4.002 4.002 0 01-7.86 0H.75a.75.75 0 010-1.5h3.32a4.002 4.002 0 017.86 0h3.32a.75.75 0 010 1.5h-3.32zm-1.43-.75a2.5 2.5 0 10-5 0 2.5 2.5 0 005 0z"/>
    </svg>
    <text x="50" y="91" class="stat">Total Commits:</text>
    <text x="200" y="91" class="stat bold">1,259</text>
  </g>

  <!-- PRs -->
  <g transform="translate(0, 0)">
    <svg x="25" y="106" width="16" height="16" viewBox="0 0 16 16" class="icon">
      <path d="M7.177 3.073L9.573.677A.25.25 0 0110 .854v4.792a.25.25 0 01-.427.177L7.177 3.427a.25.25 0 010-.354zM3.75 2.5a.75.75 0 100 1.5.75.75 0 000-1.5zm-2.25.75a2.25 2.25 0 113 2.122v5.256a2.251 2.251 0 11-1.5 0V5.372A2.25 2.25 0 011.5 3.25zM11 2.5h-1V4h1a1 1 0 011 1v5.628a2.251 2.251 0 101.5 0V5A2.5 2.5 0 0011 2.5zm1 10.25a.75.75 0 111.5 0 .75.75 0 01-1.5 0zM3.75 12a.75.75 0 100 1.5.75.75 0 000-1.5z"/>
    </svg>
    <text x="50" y="119" class="stat">Total PRs:</text>
    <text x="200" y="119" class="stat bold">8</text>
  </g>

  <!-- Issues -->
  <g transform="translate(0, 0)">
    <svg x="25" y="134" width="16" height="16" viewBox="0 0 16 16" class="icon">
      <path d="M8 9.5a1.5 1.5 0 100-3 1.5 1.5 0 000 3z"/>
      <path fill-rule="evenodd" d="M8 0a8 8 0 100 16A8 8 0 008 0zM1.5 8a6.5 6.5 0 1113 0 6.5 6.5 0 01-13 0z"/>
    </svg>
    <text x="50" y="147" class="stat">Total Issues:</text>
    <text x="200" y="147" class="stat bold">3</text>
  </g>

  <!-- Contributed to -->
  <g transform="translate(0, 0)">
    <svg x="25" y="162" width="16" height="16" viewBox="0 0 16 16" class="icon">
      <path fill-rule="evenodd" d="M2 2.5A2.5 2.5 0 014.5 0h8.75a.75.75 0 01.75.75v12.5a.75.75 0 01-.75.75h-2.5a.75.75 0 110-1.5h1.75v-2h-8a1 1 0 00-.714 1.7.75.75 0 01-1.072 1.05A2.495 2.495 0 012 11.5v-9zm10.5-1h-8a1 1 0 00-1 1v6.708A2.486 2.486 0 014.5 9h8V1.5zm-8 11h1.5v-2H4.5a1 1 0 100 2z"/>
    </svg>
    <text x="50" y="175" class="stat">Contributed to:</text>
    <text x="200" y="175" class="stat bold">5 repos</text>
  </g>
</svg>
