<svg xmlns="http://www.w3.org/2000/svg" width="520" height="280" viewBox="0 0 520 280">
  <style>
    .header { font: 600 18px 'Segoe UI', Ubuntu, Sans-Serif; fill: #70a5fd; }
    .lang-name { font: 600 12px 'Segoe UI', Ubuntu, Sans-Serif; fill: #c9d1d9; }
    .lang-pct { font: 400 11px 'Segoe UI', Ubuntu, Sans-Serif; fill: #38bdae; }
    .note { font: 400 10px 'Segoe UI', Ubuntu, Sans-Serif; fill: #38bdae; opacity: 0.5; }
  </style>
  <rect x="0.5" y="0.5" rx="4.5" width="519" height="279" fill="#1a1b27" stroke="#444" stroke-opacity="1"/>
  <text x="25" y="35" class="header">Most Used Languages</text>

  <path d="M 150.0 50.0 A 90 90 0 0 1 225.6 188.8 L 196.2 169.8 A 55 55 0 0 0 150.0 85.0 Z" fill="#555555" stroke="#1a1b27" stroke-width="1.5"/>
  <path d="M 225.6 188.8 A 90 90 0 0 1 130.2 227.8 L 137.9 193.7 A 55 55 0 0 0 196.2 169.8 Z" fill="#3572A5" stroke="#1a1b27" stroke-width="1.5"/>
  <path d="M 130.2 227.8 A 90 90 0 0 1 82.5 199.5 L 108.7 176.3 A 55 55 0 0 0 137.9 193.7 Z" fill="#3178c6" stroke="#1a1b27" stroke-width="1.5"/>
  <path d="M 82.5 199.5 A 90 90 0 0 1 63.8 165.8 L 97.3 155.8 A 55 55 0 0 0 108.7 176.3 Z" fill="#00ADD8" stroke="#1a1b27" stroke-width="1.5"/>
  <path d="M 63.8 165.8 A 90 90 0 0 1 60.3 132.5 L 95.2 135.4 A 55 55 0 0 0 97.3 155.8 Z" fill="#f34b7d" stroke="#1a1b27" stroke-width="1.5"/>
  <path d="M 60.3 132.5 A 90 90 0 0 1 67.8 103.3 L 99.8 117.6 A 55 55 0 0 0 95.2 135.4 Z" fill="#A97BFF" stroke="#1a1b27" stroke-width="1.5"/>
  <path d="M 67.8 103.3 A 90 90 0 0 1 76.9 87.5 L 105.3 107.9 A 55 55 0 0 0 99.8 117.6 Z" fill="#3be133" stroke="#1a1b27" stroke-width="1.5"/>
  <path d="M 76.9 87.5 A 90 90 0 0 1 86.6 76.1 L 111.3 101.0 A 55 55 0 0 0 105.3 107.9 Z" fill="#dea584" stroke="#1a1b27" stroke-width="1.5"/>
  <path d="M 86.6 76.1 A 90 90 0 0 1 98.0 66.5 L 118.2 95.1 A 55 55 0 0 0 111.3 101.0 Z" fill="#b2b7f8" stroke="#1a1b27" stroke-width="1.5"/>
  <path d="M 98.0 66.5 A 90 90 0 0 1 109.8 59.5 L 125.4 90.8 A 55 55 0 0 0 118.2 95.1 Z" fill="#e34c26" stroke="#1a1b27" stroke-width="1.5"/>
  <path d="M 109.8 59.5 A 90 90 0 0 1 118.5 55.7 L 130.7 88.5 A 55 55 0 0 0 125.4 90.8 Z" fill="#76d275" stroke="#1a1b27" stroke-width="1.5"/>
  <path d="M 118.5 55.7 A 90 90 0 0 1 126.6 53.1 L 135.7 86.9 A 55 55 0 0 0 130.7 88.5 Z" fill="#89e051" stroke="#1a1b27" stroke-width="1.5"/>
  <path d="M 126.6 53.1 A 90 90 0 0 1 150.0 50.0 L 150.0 85.0 A 55 55 0 0 0 135.7 86.9 Z" fill="#666666" stroke="#1a1b27" stroke-width="1.5"/>

  <g transform="translate(280, 60)">
    <circle cx="6" cy="6" r="6" fill="#555555"/>
    <text x="18" y="10" class="lang-name">C</text>
    <text x="18" y="23" class="lang-pct">34.13%</text>
  </g>
  <g transform="translate(400, 60)">
    <circle cx="6" cy="6" r="6" fill="#3572A5"/>
    <text x="18" y="10" class="lang-name">Python</text>
    <text x="18" y="23" class="lang-pct">19.40%</text>
  </g>
  <g transform="translate(280, 88)">
    <circle cx="6" cy="6" r="6" fill="#3178c6"/>
    <text x="18" y="10" class="lang-name">TypeScript</text>
    <text x="18" y="23" class="lang-pct">9.98%</text>
  </g>
  <g transform="translate(400, 88)">
    <circle cx="6" cy="6" r="6" fill="#00ADD8"/>
    <text x="18" y="10" class="lang-name">Go</text>
    <text x="18" y="23" class="lang-pct">6.86%</text>
  </g>
  <g transform="translate(280, 116)">
    <circle cx="6" cy="6" r="6" fill="#f34b7d"/>
    <text x="18" y="10" class="lang-name">C++</text>
    <text x="18" y="23" class="lang-pct">5.96%</text>
  </g>
  <g transform="translate(400, 116)">
    <circle cx="6" cy="6" r="6" fill="#A97BFF"/>
    <text x="18" y="10" class="lang-name">Kotlin</text>
    <text x="18" y="23" class="lang-pct">5.36%</text>
  </g>
  <g transform="translate(280, 144)">
    <circle cx="6" cy="6" r="6" fill="#3be133"/>
    <text x="18" y="10" class="lang-name">OCaml</text>
    <text x="18" y="23" class="lang-pct">3.22%</text>
  </g>
  <g transform="translate(400, 144)">
    <circle cx="6" cy="6" r="6" fill="#dea584"/>
    <text x="18" y="10" class="lang-name">Rust</text>
    <text x="18" y="23" class="lang-pct">2.66%</text>
  </g>
  <g transform="translate(280, 172)">
    <circle cx="6" cy="6" r="6" fill="#b2b7f8"/>
    <text x="18" y="10" class="lang-name">Verilog</text>
    <text x="18" y="23" class="lang-pct">2.64%</text>
  </g>
  <g transform="translate(400, 172)">
    <circle cx="6" cy="6" r="6" fill="#e34c26"/>
    <text x="18" y="10" class="lang-name">HTML</text>
    <text x="18" y="23" class="lang-pct">2.43%</text>
  </g>
  <g transform="translate(280, 200)">
    <circle cx="6" cy="6" r="6" fill="#76d275"/>
    <text x="18" y="10" class="lang-name">Starlark</text>
    <text x="18" y="23" class="lang-pct">1.67%</text>
  </g>
  <g transform="translate(400, 200)">
    <circle cx="6" cy="6" r="6" fill="#89e051"/>
    <text x="18" y="10" class="lang-name">Shell</text>
    <text x="18" y="23" class="lang-pct">1.50%</text>
  </g>
  <g transform="translate(280, 228)">
    <circle cx="6" cy="6" r="6" fill="#666666"/>
    <text x="18" y="10" class="lang-name">Other</text>
    <text x="18" y="23" class="lang-pct">4.19%</text>
  </g>

  <text x="25" y="268" class="note">Updated 2026-09-11 (excludes TeX)</text>
</svg>
